<svg xmlns="http://www.w3.org/2000/svg" xmlns:xlink="http://www.w3.org/1999/xlink" width="38.354" height="38.354" viewBox="0 0 38.354 38.354">
  <defs>
    <clipPath id="clip-path">
      <rect id="Rectangle_187" data-name="Rectangle 187" width="18.016" height="18.007" fill="#0f2b7f"/>
    </clipPath>
  </defs>
  <g id="Group_12591" data-name="Group 12591" transform="translate(-1184 -6283)">
    <path id="Path_158" data-name="Path 158" d="M19.177,38.354A19.177,19.177,0,1,1,38.354,19.177,19.2,19.2,0,0,1,19.177,38.354m0-36.639a17.462,17.462,0,0,0,0,34.924h0a17.462,17.462,0,1,0,0-34.924" transform="translate(1184 6283)" fill="#0f2b7f"/>
    <g id="Group_12590" data-name="Group 12590" transform="translate(1194 6293)">
      <g id="Group_12589" data-name="Group 12589" transform="translate(0 0)" clip-path="url(#clip-path)">
        <path id="Path_12480" data-name="Path 12480" d="M17.87,4.52a4.771,4.771,0,0,0-1.459-3.076A4.992,4.992,0,0,0,13.11.1,65.443,65.443,0,0,0,4.2.2,4.556,4.556,0,0,0,.3,3.7C-.129,5.231-.041,12.3.207,13.811a4.564,4.564,0,0,0,3.62,3.93,53.427,53.427,0,0,0,9.972.065,4.565,4.565,0,0,0,3.947-3.6c.412-1.574.265-8.27.124-9.687m-1.659,9a3.047,3.047,0,0,1-2.867,2.72c-1.453.158-7.943.248-9.292-.13a2.955,2.955,0,0,1-2.24-2.545,60.269,60.269,0,0,1,0-9.091A3.043,3.043,0,0,1,4.665,1.766,64.071,64.071,0,0,1,13.53,1.8a3.053,3.053,0,0,1,2.717,2.872,64.826,64.826,0,0,1-.037,8.849M9.01,4.384a4.619,4.619,0,1,0,4.619,4.625A4.611,4.611,0,0,0,9.01,4.384m-.034,7.607A2.988,2.988,0,1,1,12,9.015a2.987,2.987,0,0,1-3.019,2.977m5.911-7.779a1.082,1.082,0,1,1-1.072-1.086,1.073,1.073,0,0,1,1.072,1.086" transform="translate(-0.001 0.001)" fill="#0f2b7f"/>
      </g>
    </g>
  </g>
</svg>
